<?xml version="1.0" encoding="utf-8"?>
<!DOCTYPE svg PUBLIC "-//W3C//DTD SVG 1.0//EN" "http://www.w3.org/TR/2001/REC-SVG-20010904/DTD/svg10.dtd">
<svg version="1.0" xmlns="http://www.w3.org/2000/svg" width="225px" height="225px" viewBox="0 0 225 225" preserveAspectRatio="xMidYMid meet">
 <g fill="#ffffff">
  <path d="M0 172 c0 -51.55 0.05 -53 0.95 -53 1.05 0 1.55 1.30 1.55 4.25 0 2.90 1.35 10.20 3 16.55 6.10 23.10 19.75 43.95 38.50 58.75 13.65 10.80 26.55 17.10 45 22 3.50 0.90 10.80 1.95 13.90 1.95 2.95 0 3.10 0.05 3.10 1.25 l0 1.25 -53 0 -53 0 0 -53z"/>
  <path d="M118 223.85 c0 -1.15 0.15 -1.20 5.15 -1.50 11.10 -0.70 24.55 -4.55 37.30 -10.75 23.75 -11.50 44.20 -33.30 54.25 -57.85 4.40 -10.70 7.80 -24.60 7.80 -31.95 0 -2.65 0.05 -2.80 1.25 -2.80 l1.25 0 0 53 0 53 -53.50 0 -53.50 0 0 -1.15z"/>
  <path d="M14 131.25 c0 -1.65 0.10 -1.75 1.75 -1.75 1.65 0 1.75 0.10 1.75 1.75 0 1.65 -0.10 1.75 -1.75 1.75 -1.65 0 -1.75 -0.10 -1.75 -1.75z"/>
  <path d="M0 53.75 l0 -53.75 54.75 0 c53.15 0 54.75 0.05 54.75 0.95 0 0.80 -0.60 0.95 -5.10 1.30 -21.80 1.50 -43.35 10.25 -61.60 25 -22.70 18.30 -38.35 47.65 -40.60 76.15 -0.25 3.60 -0.40 4.10 -1.25 4.10 -0.95 0 -0.95 -1.30 -0.95 -53.75z"/>
  <path d="M222.50 103.15 c0 -9.05 -4.40 -25.25 -9.95 -36.90 -12.25 -25.60 -32.50 -44.85 -59.05 -56.20 -9.30 -3.95 -22.20 -7.05 -33.10 -7.85 -3.40 -0.25 -3.90 -0.40 -3.90 -1.25 0 -0.95 1.15 -0.95 54.25 -0.95 l54.25 0 0 53 0 53 -1.25 0 c-1.20 0 -1.25 -0.15 -1.25 -2.85z"/>
 </g>
 <g fill="#fffba3">
  <path d="M104.40 224.30 c-1.50 -1.10 -1.05 -1.80 1.10 -1.80 1.80 0 2 0.15 2 1.25 0 0.95 -0.25 1.25 -1.10 1.25 -0.65 0 -1.55 -0.35 -2 -0.70z"/>
  <path d="M117.50 223.75 c0 -1.10 0.20 -1.25 1.75 -1.25 1.20 0 1.75 0.25 1.75 0.75 0 0.40 -0.35 0.75 -0.75 0.75 -0.40 0 -0.75 0.25 -0.75 0.50 0 0.30 -0.45 0.50 -1 0.50 -0.75 0 -1 -0.35 -1 -1.25z"/>
  <path d="M99.50 219.95 c-31 -3.30 -60 -20.95 -77.40 -47.20 -6.40 -9.70 -12.40 -23.35 -14.80 -33.80 -3.45 -14.75 -3.90 -32.50 -1.30 -46.75 1.10 -6.30 4.25 -17 6.20 -21.40 0.70 -1.60 1.30 -3.35 1.30 -3.85 0 -0.55 0.45 -1.40 1 -1.95 0.55 -0.55 1 -1.55 1 -2.20 0 -0.65 0.30 -1.30 0.65 -1.45 0.30 -0.15 1.05 -1.10 1.60 -2.15 1.40 -2.75 7.25 -11.40 10.20 -15.10 1.40 -1.70 2.55 -3.45 2.55 -3.85 0 -0.40 0.30 -0.75 0.65 -0.75 0.35 0 1.55 -0.95 2.65 -2.15 8.10 -8.55 18.75 -16.40 29.75 -21.85 3.40 -1.70 6.55 -3.25 6.95 -3.50 3 -1.70 20.05 -6.10 26.40 -6.80 1.70 -0.20 3.10 -0.50 3.10 -0.75 0 -0.70 22.35 -0.10 28.25 0.75 27.85 4.05 51.50 17.65 69.45 39.80 2.25 2.80 6.80 9.40 6.80 9.90 0 0.30 0.20 0.60 0.45 0.70 0.60 0.20 7.15 12.95 8.25 16.15 5.45 15.55 7.30 25.70 7.30 40.35 0 18.25 -3.65 34.25 -11.30 49.50 -2.70 5.45 -5.85 10.75 -6.90 11.65 -0.30 0.30 -0.90 1.10 -1.30 1.85 -1.50 2.65 -7.15 9.45 -11.60 13.85 -17.05 17.20 -39.15 28 -62.90 30.80 -6.60 0.80 -20.65 0.90 -27 0.20z m23.75 -19.45 c6.60 -0.95 14.60 -3.05 20.50 -5.40 6.45 -2.55 16.75 -8.20 16.75 -9.10 0 -0.30 0.35 -0.50 0.75 -0.50 0.40 0 1.20 -0.45 1.75 -1 0.55 -0.55 1.20 -1 1.40 -1 1.25 0 16.10 -13.90 16.10 -15.05 0 -0.15 0.70 -1.05 1.50 -1.95 1.70 -1.90 6 -8.15 6 -8.70 0 -0.20 0.55 -1.10 1.20 -1.95 4 -5.35 10.30 -23 10.30 -28.80 0 -1.50 0.25 -2.55 0.60 -2.65 0.45 -0.15 0.65 -2.90 0.80 -9.70 0.20 -8 0.05 -10.40 -0.85 -15.55 -5.50 -31.75 -26.50 -57.50 -56.65 -69.55 -16 -6.40 -35.30 -7.55 -52.40 -3.15 -24 6.15 -46.15 24.05 -57.45 46.40 -5.55 10.95 -8.60 21.60 -9.55 33 -2.85 35.05 17.40 69.85 50.05 86.05 8.35 4.10 15.40 6.35 26.70 8.50 3.35 0.65 18.15 0.70 22.50 0.10z"/>
  <path d="M0.30 120.90 c-0.15 -0.65 -0.30 -2 -0.30 -3 0 -1.55 0.20 -1.90 1 -1.90 0.90 0 1 0.35 1 3 0 2.20 -0.20 3 -0.70 3 -0.35 0 -0.80 -0.50 -1 -1.10z"/>
  <path d="M222.50 120.25 c0 -1.55 0.15 -1.75 1.25 -1.75 0.90 0 1.25 0.25 1.25 1 0 0.55 -0.20 1 -0.50 1 -0.25 0 -0.50 0.35 -0.50 0.75 0 0.40 -0.35 0.75 -0.75 0.75 -0.50 0 -0.75 -0.55 -0.75 -1.75z"/>
  <path d="M0 108.40 c0 -2.40 0.50 -3.90 1.30 -3.90 0.50 0 0.70 0.75 0.70 2.75 0 2.40 -0.10 2.75 -1 2.75 -0.80 0 -1 -0.35 -1 -1.60z"/>
 </g>
 <g fill="#fbcb00">
  <path d="M105.70 224.55 c0.15 -0.20 -1.45 -0.45 -3.60 -0.50 -3.75 -0.10 -11.10 -1.10 -14.60 -2 -0.95 -0.25 -3.45 -0.95 -5.50 -1.55 -27.80 -7.90 -52.10 -26.80 -66.65 -51.75 -11 -19 -16.50 -42.15 -14.90 -63.25 0.70 -9.35 1.25 -13.25 2.85 -19.55 3.80 -15.35 11.45 -30.85 21.55 -43.60 16.60 -21 42.40 -36.20 68.90 -40.55 7.15 -1.15 18.45 -1.95 22.65 -1.60 2.10 0.15 5.30 0.45 7.10 0.60 9.10 0.70 22.90 4.10 31.50 7.75 33.40 14.30 57.30 41.75 66.25 76.10 1.60 6.15 2.75 13.30 2.75 17 0 1.55 0.20 2.85 0.50 2.85 0.30 0 0.50 3 0.50 8.05 0 5.20 -0.15 7.90 -0.50 7.70 -0.30 -0.20 -0.50 0.85 -0.50 2.75 0 7.65 -3.30 21.35 -7.80 32.25 -10.05 24.55 -30.50 46.35 -54.25 57.85 -12.90 6.25 -26.30 10.10 -37.55 10.75 -3 0.15 -5.40 0.50 -5.40 0.70 0 0.25 -3.05 0.45 -6.80 0.45 -3.70 0 -6.65 -0.20 -6.50 -0.45z m19.20 -6.35 c0.20 -0.25 1.60 -0.45 3.10 -0.50 6.40 -0.10 22.15 -5 32.25 -10.05 11.95 -5.95 23.75 -15.15 32.75 -25.65 4.55 -5.20 7.15 -8.90 6.75 -9.50 -0.15 -0.25 0 -0.50 0.40 -0.50 1.85 0 9.95 -15.75 13.30 -25.75 2.40 -7.25 4.70 -17.40 4.45 -19.60 -0.10 -0.90 0 -1.65 0.25 -1.65 0.25 0 0.35 -1.15 0.25 -2.50 -0.05 -1.40 0.05 -2.50 0.30 -2.50 0.65 0 0.05 -20.65 -0.60 -20.90 -0.30 -0.10 -0.40 -0.50 -0.25 -0.90 0.35 -0.95 -1.35 -10.20 -1.90 -10.20 -0.20 0 -0.30 -0.30 -0.15 -0.65 0.35 -1 -4.05 -14.70 -4.95 -15.40 -0.25 -0.15 -0.40 -0.40 -0.35 -0.50 0.25 -0.55 -0.70 -2.95 -1.15 -2.95 -0.30 0 -0.35 -0.15 -0.20 -0.35 0.35 -0.35 -5.05 -10.80 -5.75 -11.05 -0.20 -0.10 -0.40 -0.40 -0.40 -0.70 0 -0.50 -4.55 -7.10 -6.80 -9.90 -18 -22.25 -41.80 -35.85 -69.70 -39.80 -5.50 -0.80 -25 -1.30 -25 -0.65 0 0.15 -1.95 0.55 -4.35 0.85 -5.55 0.75 -15.35 3.15 -19.90 4.85 -1.90 0.70 -3.85 1.35 -4.25 1.40 -0.40 0.05 -1.20 0.40 -1.75 0.75 -0.55 0.30 -3.60 1.85 -6.75 3.45 -10.45 5.10 -21.20 13.05 -29.20 21.55 -1.10 1.15 -2.30 2.10 -2.65 2.10 -0.35 0 -0.65 0.35 -0.65 0.75 0 0.40 -1.15 2.15 -2.55 3.85 -2.95 3.70 -8.80 12.35 -10.20 15.10 -0.55 1.05 -1.30 2 -1.60 2.15 -0.35 0.15 -0.50 0.45 -0.40 0.70 0.40 0.55 -1.15 3.45 -1.80 3.45 -0.30 0 -0.35 0.20 -0.20 0.50 0.15 0.25 -0.40 2.10 -1.30 4.10 -5.20 12.15 -8 26.20 -8 40.40 0 12.20 1.55 22.35 5.05 33 1.05 3.15 1.95 6.05 2.05 6.40 0.60 2.10 7.75 15.60 10.55 19.85 7.85 11.80 18 21.95 30.20 30.15 3.70 2.50 10.30 6.20 11.20 6.35 0.15 0 0.80 0.40 1.50 0.85 1.35 0.90 8.55 3.85 9.90 4.05 0.45 0.05 1.15 0.30 1.50 0.55 1.55 0.95 13.45 3.95 14.10 3.55 0.25 -0.15 0.60 0 0.75 0.25 0.20 0.30 0.85 0.50 1.40 0.45 0.60 -0.05 1.45 0.05 1.85 0.25 2.70 1.15 28.10 1.60 28.90 0.50z"/>
  <path d="M105.50 202.45 c-19.20 -1.30 -37.15 -8.95 -53.05 -22.60 -7.75 -6.65 -16.85 -18.70 -21.45 -28.35 -1.25 -2.60 -2.45 -4.90 -2.65 -5.05 -0.25 -0.15 -0.35 -0.40 -0.30 -0.50 0.25 -0.35 -1.15 -4.95 -1.50 -4.95 -0.20 0 -0.35 -0.40 -0.40 -0.85 -0.05 -1.40 -1.70 -7.35 -2.20 -7.95 -0.25 -0.30 -0.35 -0.65 -0.20 -0.80 0.15 -0.10 -0.15 -2.25 -0.60 -4.70 -0.60 -3.35 -0.80 -6.95 -0.70 -14.70 0.15 -13.65 0.25 -15 0.75 -15 0.20 0 0.30 -0.55 0.20 -1.25 -0.15 -0.70 -0.10 -1.25 0.10 -1.25 0.15 0 0.70 -1.75 1.20 -3.85 1.90 -8.25 7.35 -20.55 12.30 -27.90 10.95 -16.25 25.75 -28 44.05 -35.05 2.60 -1 4.95 -2 5.25 -2.25 0.30 -0.25 0.65 -0.30 0.80 -0.15 0.30 0.30 7 -1.35 7.40 -1.85 0.15 -0.15 1.05 -0.30 2 -0.30 0.95 0.05 4.55 -0.25 8 -0.60 9.40 -1 21.10 -0.10 30.25 2.30 1.65 0.45 3.35 0.85 3.75 0.90 0.80 0.10 2.75 0.85 5.50 2.05 1 0.40 2.10 0.80 2.50 0.90 1.55 0.25 10.95 5.30 15.50 8.30 21.15 13.95 35.20 35.50 39.55 60.65 0.90 5.25 1.05 7.60 0.85 17.05 -0.10 7.35 -0.35 11.05 -0.70 11.15 -0.30 0.10 -0.45 0.70 -0.35 1.35 0.30 1.45 -1.85 10.15 -3.90 15.80 -1.95 5.35 -5.20 12.25 -6.75 14.35 -0.65 0.85 -1.20 1.75 -1.20 1.95 0 0.55 -4.30 6.80 -6 8.70 -0.80 0.90 -1.50 1.80 -1.50 1.95 0 1.15 -14.85 15.05 -16.10 15.05 -0.20 0 -0.85 0.45 -1.40 1 -0.55 0.55 -1.35 1 -1.75 1 -0.40 0 -0.75 0.20 -0.75 0.50 0 0.90 -10.30 6.55 -16.75 9.10 -12 4.80 -25.75 6.80 -39.75 5.85z m21.75 -7.45 c17.40 -3.45 32.45 -11.65 45.05 -24.60 19.15 -19.65 27.65 -46.95 22.70 -72.60 -6.95 -35.75 -35.45 -63.10 -71.55 -68.60 -9.65 -1.50 -23.70 -0.45 -33.40 2.40 l-2.20 0.65 11.45 5.60 11.45 5.55 6 0.30 c6.90 0.30 12.30 1.25 18 3.10 23.70 7.75 40.70 26.60 46.05 51.20 1.35 6.10 1.35 23.40 0 29.50 -0.85 4.05 -3.20 11.15 -5 15.15 -0.45 1.05 -0.60 1.85 -0.30 1.85 0.25 0 0.50 0.90 0.50 2.05 0 1.75 -0.60 2.90 -4.35 8.25 l-4.35 6.20 -2.05 0 c-1.65 0 -2.35 0.30 -3.55 1.55 -2.30 2.45 -9.20 7.70 -13.25 10.10 -19.95 11.75 -46.95 12.50 -67.65 1.85 -6.60 -3.40 -10.60 -6.30 -16.60 -12.10 -4.90 -4.75 -5.10 -4.90 -7.35 -4.90 l-2.30 0 -4.50 -6.60 c-3.35 -4.95 -4.50 -7.05 -4.55 -8.25 0 -1.55 0.10 -1.65 1.75 -1.65 0.95 0 1.75 -0.05 1.75 -0.15 0 -0.10 -0.75 -2.45 -1.70 -5.25 -0.95 -2.80 -2.10 -7.25 -2.60 -9.95 -1.15 -6.80 -1.15 -19.25 0 -25.90 1.85 -10.30 6.50 -20.85 12.90 -29.25 3.40 -4.50 3.40 -4.50 3.40 -7.75 0 -5.90 3.30 -12.60 10.10 -20.70 l3.55 -4.25 -3.10 1.75 c-6.25 3.55 -12.45 8.30 -18.30 14.20 -12 12.05 -19.65 26.25 -23.35 43.25 -0.95 4.50 -1.10 6.75 -1.10 15.50 0 8.75 0.15 11 1.10 15.35 7.95 36.60 36.45 62.95 73.60 68.15 5.35 0.75 17.55 0.25 23.75 -1z m-8 -24.75 c2.75 -0.40 6.70 -1.20 8.75 -1.75 6.35 -1.80 17.75 -7.60 15.95 -8.20 -0.40 -0.10 -5.85 -0.35 -12.15 -0.50 l-11.40 -0.30 -2 2.25 c-2.35 2.65 -4.80 3.50 -8.70 3 -3.15 -0.40 -5.65 -1.90 -6.70 -4.10 l-0.75 -1.55 -5 -0.30 c-2.75 -0.15 -8.35 -0.40 -12.50 -0.55 l-7.45 -0.30 2.05 1.50 c8.05 5.85 17.85 9.65 28.20 11 4.75 0.65 6.20 0.60 11.70 -0.20z m-3.95 -24.60 l2.95 -1.40 21.45 -0.05 21.40 -0.05 1.25 -1.95 c10.30 -16.65 11.10 -37.40 2.10 -54.95 -10.50 -20.60 -32.15 -33.30 -55.05 -32.35 -2.20 0.10 -2.65 0.35 -5.60 3.20 -5.50 5.40 -6.95 10.10 -4.80 15.10 1.85 4.35 5.25 8.60 14.25 17.80 4.95 5.10 9.85 10.25 10.85 11.50 5.95 7.35 6.95 15.50 2.60 21.20 -1.05 1.40 -4 3.75 -8.05 6.50 -3.55 2.30 -8.85 6.05 -11.80 8.20 l-5.45 4 2.20 0.35 c2.80 0.45 6.60 2.10 7.70 3.30 0.45 0.50 0.90 0.95 0.95 0.95 0.10 0 1.45 -0.60 3.05 -1.35z m-31.80 -4.30 c-0.40 -0.40 -4.80 -4.05 -9.75 -8.10 -4.95 -4.10 -10.95 -9.10 -13.35 -11.10 -2.40 -2 -4.50 -3.65 -4.70 -3.65 -0.65 0 0.45 5.95 2.05 10.80 0.90 2.75 2.45 6.65 3.45 8.60 l1.80 3.55 4.85 0.20 c13.50 0.45 16.40 0.35 15.65 -0.30z m-2.10 -15.60 c-0.30 -0.30 -2.90 0.40 -2.90 0.80 0 0.20 0.70 0.15 1.55 -0.15 0.80 -0.30 1.45 -0.60 1.35 -0.65z m22.30 -16.40 c0.85 -0.60 0.85 -0.75 -0.40 -2.20 -0.70 -0.80 -3 -2.85 -5.15 -4.50 -2.15 -1.65 -9.90 -7.75 -17.25 -13.55 -7.35 -5.85 -13.55 -10.60 -13.85 -10.60 -1.25 0 -7.15 11 -9.20 17.15 -1.20 3.55 -2.85 11.35 -2.85 13.50 0 0.80 1.45 0.85 23.90 0.85 18.90 0 24.10 -0.15 24.80 -0.65z"/>
 </g>
 <g fill="#271756">
  <path d="M103.50 213.45 c-1.60 -0.65 -2 -1.30 -2 -3.55 0 -3.20 2.45 -4.75 5.15 -3.35 1.50 0.80 1.85 1.40 1.85 3.25 0 2.80 -2.50 4.65 -5 3.65z m2.90 -1.55 c1 -1 0.75 -3.80 -0.40 -4.40 -2.05 -1.10 -4.20 1.75 -3 4 0.60 1.10 2.45 1.35 3.40 0.40z"/>
  <path d="M110.50 210.25 l0 -3.75 2.40 0 c3.40 0 4.60 1.55 2.75 3.60 -0.75 0.85 -0.75 1 0.25 2.05 1.35 1.40 1.40 1.85 0.25 1.85 -0.50 0 -1.30 -0.70 -1.75 -1.55 -1.15 -1.95 -2.70 -1.80 -2.55 0.20 0.05 0.90 -0.15 1.35 -0.65 1.35 -0.55 0 -0.70 -0.80 -0.70 -3.75z m4.15 -0.70 c0.20 -0.05 0.35 -0.40 0.35 -0.80 0 -0.90 -2.40 -1.55 -3.10 -0.85 -0.85 0.85 -0.10 1.95 1.20 1.80 0.60 -0.05 1.30 -0.15 1.55 -0.15z"/>
  <path d="M120.40 210.65 c-0.15 -2.60 -0.25 -2.90 -1.30 -3.05 -0.65 -0.10 -1.05 -0.45 -0.95 -0.75 0.20 -0.75 5.85 -1.10 5.85 -0.40 0 0.25 -0.50 0.55 -1.10 0.65 -1.05 0.15 -1.15 0.40 -1.05 3.30 0.05 2.35 -0.10 3.10 -0.60 3.10 -0.50 0 -0.75 -0.85 -0.85 -2.85z"/>
  <path d="M93.85 212.15 c-0.15 -0.25 0 -1.95 0.25 -3.85 l0.55 -3.40 2 0.30 c2.40 0.40 3.35 1.05 3.35 2.35 0 1.40 -1.40 2.45 -3.30 2.45 -1.50 0 -1.70 0.15 -1.70 1.25 0 1.20 -0.70 1.70 -1.15 0.90z m4.55 -4.50 c-0.10 -0.55 -0.70 -0.95 -1.55 -1.05 -1.10 -0.15 -1.35 0.05 -1.35 0.85 0 0.85 0.30 1.05 1.55 1.05 1.20 0 1.50 -0.20 1.35 -0.85z"/>
  <path d="M128.65 211.40 c0.15 -0.65 0.45 -2.05 0.65 -3.15 0.40 -2.40 1.10 -3.85 1.75 -3.65 0.25 0.10 1.35 1.60 2.40 3.40 1.90 3.15 1.95 4.45 0.10 2.80 -1.05 -0.95 -3.20 -0.40 -3.70 0.90 -0.50 1.25 -1.50 0.95 -1.20 -0.30z m3.30 -2.35 c0.60 -0.40 0.60 -0.60 0.10 -1.25 -0.95 -1.15 -1.55 -1 -1.55 0.45 0 1.35 0.30 1.50 1.45 0.80z"/>
  <path d="M87.70 211 c-1.25 -0.50 -1.95 -1.95 -1.25 -2.65 0.30 -0.30 0.65 -0.05 1 0.60 0.65 1.15 3.05 1.50 3.05 0.45 -0.05 -0.35 -0.75 -1.10 -1.65 -1.65 -2.05 -1.30 -2.20 -3.25 -0.35 -3.75 1.55 -0.45 3.40 0.20 3.80 1.25 0.50 1.20 -0.20 1.50 -1.20 0.60 -1 -0.90 -2.60 -1.15 -2.60 -0.40 0 0.25 0.80 0.90 1.75 1.50 1.90 1.10 2.25 2.50 0.95 3.75 -0.85 0.90 -1.90 0.95 -3.50 0.30z"/>
  <path d="M137.25 210.40 c-0.60 -1.65 -1.75 -5.70 -1.75 -6.25 0 -1.05 1.25 -0.75 2.55 0.65 0.65 0.70 1.60 1.50 2.10 1.80 0.80 0.40 0.90 0.35 0.65 -0.45 -1.25 -4.25 -0.45 -5.25 0.85 -1.10 1.60 4.85 0.90 5.65 -2.30 2.60 -2.15 -2.05 -2.10 -2.20 -1.10 2 0.35 1.35 -0.55 2 -1 0.75z"/>
  <path d="M82 208.25 c-0.25 -0.70 -0.50 -1.70 -0.50 -2.15 -0.05 -2.05 -0.85 -2.10 -1.65 -0.10 -0.40 1.10 -1.05 2 -1.35 2 -0.35 0 -0.50 -0.30 -0.35 -0.60 0.10 -0.35 0.65 -1.95 1.15 -3.55 1.20 -3.65 2.25 -3.65 2.90 0.05 0.50 2.95 0.95 3.25 1.75 1.10 0.60 -1.75 1.80 -2.10 1.25 -0.35 -1.60 5.05 -2.35 5.90 -3.20 3.60z"/>
  <path d="M144.05 205.20 c-0.65 -1.80 -1.10 -3.35 -1 -3.40 0.80 -0.70 2.65 -1.30 3.90 -1.30 1.20 0 1.70 0.35 2.30 1.50 1.20 2.35 1 4.35 -0.60 5.15 -3.20 1.65 -3.30 1.60 -4.60 -1.95z m4.75 0.05 c0.40 -1 -1.20 -3.75 -2.20 -3.75 -1.85 0 -2.30 0.75 -1.60 2.60 1.05 2.55 1.45 2.95 2.60 2.35 0.50 -0.30 1.05 -0.80 1.20 -1.20z"/>
  <path d="M75 205.80 c0 -0.95 -0.35 -1.30 -1.45 -1.55 -0.85 -0.20 -1.90 -0.05 -2.50 0.35 -2 1.25 -1.65 -0.15 0.75 -2.70 1.40 -1.50 2.90 -2.65 3.45 -2.65 0.90 0 1 0.35 1.05 3.90 0 2.90 -0.15 3.85 -0.65 3.85 -0.35 0 -0.65 -0.55 -0.65 -1.20z m0 -3.90 l0 -1.60 -1.10 1.10 c-1 0.95 -1.05 1.20 -0.40 1.60 1.25 0.80 1.50 0.60 1.50 -1.10z"/>
  <path d="M67.65 203.40 c-0.30 -0.35 -0.65 -1.50 -0.85 -2.50 -0.40 -2.25 -1.10 -2.40 -2.65 -0.50 -0.70 0.85 -1.10 1.10 -1.15 0.60 0 -1.05 2.25 -5.80 3 -6.25 0.30 -0.20 1.45 0.25 2.55 1 1.65 1.05 2 1.55 1.85 2.65 -0.10 0.95 -0.50 1.40 -1.30 1.50 -1 0.15 -1.05 0.35 -0.80 2.15 0.35 2.05 0.15 2.40 -0.65 1.35z m1.30 -5.10 c0.50 -0.60 0.35 -0.90 -0.90 -1.55 -1.45 -0.70 -1.60 -0.70 -1.90 0.05 -0.20 0.55 0.05 1.10 0.60 1.50 1.20 0.90 1.50 0.85 2.20 0z"/>
  <path d="M156.20 202.95 c-1.45 -0.50 -2.70 -2.35 -2.70 -3.95 0 -2.55 3.55 -4.50 4.95 -2.80 0.50 0.60 0.30 0.75 -1.30 0.90 -1.65 0.15 -1.90 0.30 -2.05 1.55 -0.35 2.85 2.95 4.60 3.90 2.05 0.50 -1.25 1.50 -1.25 1.50 0 0 1.50 -2.65 2.90 -4.30 2.25z"/>
  <path d="M161.55 197.70 c-1.40 -1.75 -1.30 -3.45 0.20 -4.95 1.90 -1.95 4.30 -1.50 5.65 1.10 0.90 1.65 0.70 2.85 -0.55 4.05 -1.65 1.55 -4 1.45 -5.30 -0.20z m4.60 -0.75 c0.70 -1.10 0.05 -3.30 -1.15 -3.95 -1.45 -0.75 -3 0.20 -3 1.85 0 2.65 2.90 4.10 4.15 2.10z"/>
  <path d="M58.30 198.05 c-0.15 -0.25 0.10 -0.95 0.60 -1.60 2 -2.80 2.25 -3.50 1.35 -4.45 -0.45 -0.50 -0.60 -1 -0.40 -1.15 0.55 -0.35 5.15 2.55 5.15 3.20 0 0.60 -0.35 0.55 -1.55 -0.05 -0.85 -0.50 -1.15 -0.20 -2.55 2 -1.55 2.50 -2.10 2.90 -2.60 2.05z"/>
  <path d="M102 197.50 c-33.50 -4.65 -60.40 -26.80 -70.95 -58.40 -3.20 -9.60 -3.75 -13.65 -3.75 -26.60 0 -10.35 0.10 -12.35 1.10 -17 6.60 -30.35 28.05 -54.65 56.80 -64.25 36.60 -12.25 76.85 1.50 98.30 33.60 9 13.40 13.75 28.05 14.35 44.15 0.90 23.95 -7.45 45.90 -24.05 62.90 -12.60 12.95 -27.60 21.15 -45.05 24.60 -6.20 1.25 -21 1.80 -26.75 1z m18.75 -17.55 c9.30 -1.15 18.35 -4.20 26.20 -8.80 4.05 -2.40 10.95 -7.65 13.25 -10.10 1.20 -1.25 1.90 -1.55 3.55 -1.55 l2.05 0 4.35 -6.20 c2.40 -3.45 4.35 -6.45 4.35 -6.75 0 -0.30 -0.60 -0.55 -1.30 -0.55 -0.70 0 -1.20 -0.15 -1.10 -0.35 3.45 -6.90 5.85 -13.45 7.25 -19.75 1.25 -5.90 1.25 -20.45 -0.05 -26.40 -5.35 -24.55 -22.35 -43.45 -46.05 -51.20 -5.70 -1.85 -11.10 -2.80 -18.15 -3.15 l-6.20 -0.30 -12.80 -6.35 -12.85 -6.40 -4.20 4.35 c-11.35 11.65 -16.55 20.40 -16.55 27.80 0 3.25 0 3.25 -3.40 7.75 -13.35 17.60 -17.35 40.75 -10.50 61.50 0.85 2.60 1.95 5.60 2.45 6.60 0.55 1.05 0.95 2.05 0.95 2.30 0 0.25 -1.15 0.35 -2.55 0.20 -2.15 -0.20 -2.50 -0.10 -2.15 0.45 0.25 0.40 2.30 3.50 4.60 6.85 l4.10 6.10 2.35 0 c2.25 0 2.45 0.15 7.35 4.90 6 5.80 10 8.70 16.60 12.10 11.75 6.05 25.55 8.50 38.45 6.95z"/>
  <path d="M106.05 171.95 c-12 -1.55 -23.70 -6.65 -31.75 -13.85 l-1.95 -1.75 11.45 0.35 c6.30 0.20 13.35 0.45 15.70 0.60 4.15 0.30 4.25 0.35 5 1.85 0.95 1.95 2.80 3.30 5.20 3.85 2.80 0.60 4.95 -0.20 7.25 -2.80 l2 -2.30 11.15 0.30 c13.80 0.40 19.40 0.75 19.40 1.30 0 0.70 -7 5.05 -11.75 7.30 -9.65 4.60 -21.40 6.50 -31.70 5.15z"/>
  <path d="M110.75 148.70 c-1.95 -2.55 -5.75 -4.20 -10.80 -4.60 l-4 -0.35 9.40 -6.80 c5.15 -3.70 11.35 -8.05 13.75 -9.60 6.90 -4.55 9.40 -8.65 8.40 -13.95 -1 -5.05 -3.30 -8.10 -15.75 -20.90 -12.50 -12.80 -15.35 -17.15 -15.40 -23.75 -0.05 -4.50 1.55 -7.80 5.90 -12.05 l3.10 -3.05 3.95 -0.35 c6.95 -0.60 16.80 0.85 23.95 3.55 20.05 7.45 34.15 24.15 38.30 45.40 1 5.10 0.90 17 -0.25 22.15 -1.50 6.95 -4.25 14.10 -7.50 19.35 l-1.25 2 -21.40 0 c-21.30 0 -21.40 0 -23.90 1.15 -1.35 0.65 -3.10 1.70 -3.80 2.40 l-1.30 1.25 -1.40 -1.85z"/>
  <path d="M77.50 143.45 c-4.80 -0.15 -10.40 -0.35 -12.35 -0.40 l-3.65 -0.05 -1.80 -3.60 c-3.55 -7.05 -6.70 -19.40 -6.10 -24.05 0.15 -1.40 0.20 -1.35 5.40 2.95 25.25 20.90 30 24.90 30 25.30 0 0.20 -0.60 0.35 -1.35 0.30 -0.80 -0.05 -5.35 -0.25 -10.15 -0.45z"/>
  <path d="M76.25 127.45 c-1 -0.90 -1.65 -1.70 -1.50 -1.90 0.20 -0.15 2.95 -1 6.15 -1.90 l5.85 -1.60 1.25 1.20 c0.75 0.80 1.05 1.40 0.75 1.70 -0.45 0.45 -9.75 4.05 -10.45 4.05 -0.15 0 -1.05 -0.70 -2.05 -1.55z"/>
  <path d="M92.45 122.40 c-1.40 -1.20 -0.95 -1.55 3.05 -2.40 5.55 -1.15 6.55 0.15 1.55 2.05 -3.35 1.25 -3.40 1.25 -4.60 0.35z"/>
  <path d="M104 118.50 c0 -0.25 0.60 -0.60 1.40 -0.80 0.75 -0.15 1.65 -0.35 2 -0.50 1.15 -0.35 0.60 0.65 -0.65 1.20 -1.60 0.75 -2.75 0.75 -2.75 0.10z"/>
  <path d="M53.50 109.25 c0 -6.10 2.55 -15.80 5.85 -22.50 2.25 -4.45 6.70 -11.25 7.40 -11.25 0.25 0.05 7.05 5.20 15 11.55 8 6.35 16.15 12.80 18.15 14.30 1.95 1.50 4.30 3.55 5.10 4.55 1.70 2.05 1.95 4.25 0.65 4.90 -0.50 0.25 -12.45 0.55 -26.55 0.70 l-25.60 0.25 0 -2.50z"/>
  <path d="M168.65 192.30 c-1.60 -2 -1.95 -2.80 -1.50 -3.25 0.80 -0.80 1.20 -0.70 3.05 0.70 0.90 0.70 1.80 1.25 1.95 1.25 0.15 0 -0.15 -1.05 -0.70 -2.35 -0.80 -1.85 -0.85 -2.40 -0.35 -2.75 0.35 -0.20 0.80 -0.40 1 -0.40 0.40 0 4.40 5.15 4.40 5.65 0 0.95 -1.40 0.15 -2.45 -1.40 -1.45 -2.20 -1.80 -2 -0.80 0.40 1.50 3.65 0.60 4.40 -2.10 1.75 -2.15 -2.05 -2.65 -1.50 -0.70 0.75 1.70 1.90 1.85 2.35 0.90 2.35 -0.35 0 -1.55 -1.20 -2.70 -2.70z"/>
  <path d="M48.50 191.05 c0 -0.65 4 -5.55 4.55 -5.55 0.75 0 3.70 2.90 3.30 3.30 -0.20 0.20 -0.90 -0.15 -1.60 -0.80 -1.05 -0.95 -1.35 -1.05 -2 -0.50 -0.70 0.60 -0.65 0.80 0.55 2.10 1.50 1.55 0.70 2 -0.95 0.55 -0.90 -0.85 -1 -0.85 -1.85 0.25 -0.90 1.10 -2 1.50 -2 0.65z"/>
  <path d="M176.35 187.10 c-3.40 -3.45 -2.95 -5.70 0.65 -3.25 2.40 1.60 2.70 1.45 1.45 -0.75 -0.65 -1.10 -1 -2.30 -0.80 -2.75 0.55 -1.45 1.05 -1.20 4.10 2.05 1.40 1.50 1.80 2.25 1.40 2.65 -0.40 0.40 -0.90 0.05 -1.90 -1.25 -1.80 -2.35 -2.10 -2 -0.75 0.70 1.45 2.80 0.75 3.55 -1.80 1.80 -2.45 -1.65 -2.80 -1.25 -0.75 0.90 0.90 0.95 1.45 1.80 1.20 1.95 -0.30 0.20 -1.55 -0.75 -2.80 -2.05z"/>
  <path d="M44.40 187.75 c-2.80 -1.55 -2.05 -5.80 1.30 -6.95 1.90 -0.70 4 0.95 4.20 3.30 0.15 1.45 -0.10 2 -1.40 3.10 -1.80 1.50 -2.25 1.55 -4.10 0.55z m3.80 -2.40 c0.80 -1.05 0.90 -1.60 0.50 -2.25 -1.25 -1.95 -4.70 -0.75 -4.70 1.65 0 2.55 2.50 2.90 4.20 0.60z"/>
  <path d="M182.10 179.75 c-1.95 -1.85 -2.15 -2.25 -1.30 -2.25 0.55 0 1.65 0.70 2.45 1.50 1.70 1.75 3.40 1.85 3.65 0.15 0.10 -0.75 -0.45 -1.55 -1.85 -2.70 -2.25 -1.75 -2.55 -2.45 -1.15 -2.45 1.20 0 4.60 3.55 4.60 4.80 0 1.25 -1.95 3.20 -3.20 3.20 -0.45 0 -1.90 -1 -3.20 -2.25z"/>
  <path d="M35.75 179 c-0.20 -0.30 0.20 -0.95 0.90 -1.50 0.65 -0.55 1.50 -2 1.85 -3.25 0.35 -1.25 0.90 -2.20 1.20 -2.10 0.60 0.25 0.60 0.35 0.10 2.55 -0.35 1.35 -0.30 1.40 1.20 1.20 0.85 -0.15 1.75 0.05 2.05 0.40 0.35 0.45 -0.10 0.70 -2 0.95 -1.45 0.20 -2.85 0.75 -3.35 1.30 -0.95 1.05 -1.50 1.20 -1.95 0.45z"/>
  <path d="M188.10 174.10 c-1.45 -1.30 -2.60 -2.55 -2.60 -2.80 0 -0.25 1.45 -0.30 3.30 -0.15 l3.35 0.35 -1.95 -1.70 c-2.05 -1.75 -2.10 -3.05 -0.10 -1.65 2.75 1.95 4.55 3.75 4.20 4.30 -0.25 0.35 -1.30 0.45 -3.20 0.25 l-2.85 -0.25 1.85 1.55 c1.05 0.90 1.75 1.80 1.60 2.05 -0.45 0.75 -0.85 0.55 -3.60 -1.95z"/>
  <path d="M31 173.15 c0 -0.25 1.05 -1.35 2.35 -2.50 1.95 -1.65 2.30 -2.20 1.80 -2.70 -0.75 -0.75 -0.85 -1.45 -0.20 -1.45 0.90 0 3.70 4.05 3.20 4.55 -0.30 0.30 -0.70 0.20 -1.15 -0.30 -0.55 -0.65 -0.90 -0.55 -2.80 1 -2.05 1.70 -3.20 2.20 -3.20 1.40z"/>
  <path d="M28 168.80 c0 -0.65 4.95 -4.80 5.75 -4.80 0.15 0 0.25 0.30 0.25 0.65 0 0.40 -1.05 1.45 -2.35 2.40 -3.40 2.50 -3.65 2.60 -3.65 1.75z"/>
  <path d="M193 167.70 c-2.50 -1.55 -3.65 -3.15 -2.15 -2.85 0.95 0.20 5.65 3.70 5.65 4.20 0 0.75 -0.60 0.50 -3.50 -1.35z"/>
  <path d="M25.35 164.60 c-1.10 -1.20 -1.10 -3.30 0 -4.15 0.75 -0.65 0.80 -0.55 0.50 0.90 -0.20 1.15 -0.10 1.85 0.45 2.40 1.15 1.10 1.80 0.45 1.40 -1.50 -0.45 -2.40 0.15 -3.75 1.55 -3.75 1.45 0 2.90 1.95 2.65 3.60 -0.25 1.70 -1.15 1.40 -1.30 -0.45 -0.10 -0.85 -0.50 -1.70 -0.95 -1.85 -0.65 -0.25 -0.75 0.05 -0.55 1.90 0.15 1.20 0.05 2.55 -0.20 3 -0.60 1.05 -2.55 1 -3.55 -0.10z"/>
  <path d="M194.30 164.45 c-1.85 -1.45 -1.70 -4.30 0.30 -5.40 1.90 -1.10 2.40 -0.25 0.65 1.15 -1.65 1.30 -1.50 2.30 0.50 3.60 1.65 1.10 3 0.45 3 -1.45 0.05 -1.65 0.65 -2.30 1.25 -1.35 0.75 1.20 0.60 2.40 -0.50 3.50 -1.30 1.30 -3.50 1.25 -5.20 -0.05z"/>
  <path d="M22.30 159.10 c-0.20 -0.30 0 -1.25 0.45 -2.05 1.05 -2.05 1 -3.25 -0.10 -2.80 -3.80 1.55 -3.45 0.05 0.40 -1.85 1.45 -0.75 2.85 -1.35 3.10 -1.35 0.20 -0.05 0.85 1 1.50 2.25 l1.10 2.30 -1.15 0.95 c-0.90 0.70 -1.45 0.80 -2.10 0.45 -1.25 -0.65 -1.50 -0.65 -1.50 0.15 0 1.10 -1.30 2.60 -1.70 1.95z m4.60 -4.45 c0.15 -1.10 -1.10 -2.40 -1.90 -1.90 -0.70 0.40 -0.65 1.90 0.10 2.65 0.80 0.80 1.60 0.50 1.80 -0.75z"/>
  <path d="M199.35 157.10 c-3.80 -3.85 -2.95 -4.70 3.80 -3.80 2.25 0.30 2.85 1.20 0.85 1.20 -1.10 0 -2.80 2.75 -2 3.25 0.60 0.35 0.65 1.75 0.10 1.75 -0.20 0 -1.45 -1.10 -2.75 -2.40z m1.85 -1.40 c0.45 -1.15 0.40 -1.20 -0.95 -1.20 -1.35 0 -1.60 0.45 -0.65 1.40 0.80 0.80 1.25 0.75 1.60 -0.20z"/>
  <path d="M18 149.70 c-0.55 -1.25 -1 -2.45 -1 -2.65 0 -0.35 6.60 -3.20 6.75 -2.90 0.35 0.50 1.75 4.50 1.75 4.90 0 1 -1.40 -0.50 -1.70 -1.80 -0.20 -0.85 -0.65 -1.25 -1.35 -1.25 -0.75 0 -0.95 0.20 -0.75 0.80 0.70 1.85 0.90 3.20 0.40 3.20 -0.25 0 -0.75 -0.65 -1.05 -1.50 -0.50 -1.45 -1.70 -2 -2.30 -1 -0.15 0.25 0.05 1.30 0.50 2.30 0.90 2.15 0.90 2.20 0.25 2.20 -0.30 0 -1 -1.05 -1.50 -2.30z"/>
  <path d="M203.35 148.90 c-2.35 -1 -2.40 -1 -3.10 -0.10 -1.20 1.65 -1.30 0.45 -0.20 -2.20 1.10 -2.65 2.30 -3.60 1.75 -1.35 -0.30 1.15 -0.05 1.35 2.45 2.45 1.50 0.70 2.75 1.50 2.75 1.75 0 0.75 -0.90 0.60 -3.65 -0.55z"/>
  <path d="M205.15 143.85 c-1.75 -0.60 -3.15 -1.35 -3.15 -1.70 0 -0.85 0.25 -0.85 3.90 0.40 2.85 0.95 3.65 1.60 2.75 2.10 -0.25 0.10 -1.80 -0.25 -3.50 -0.80z"/>
  <path d="M15 141.75 c0 -0.70 5.30 -5.25 6.15 -5.25 1 0 0.05 1.45 -2 3 l-2.35 1.75 3.10 0.15 c4.50 0.20 3.80 1.10 -0.90 1.10 -3.20 0 -4 -0.15 -4 -0.75z"/>
  <path d="M204.25 139.75 c-1.45 -1.40 -1.55 -2.25 -0.50 -4.20 1.20 -2.40 4.45 -2.45 6.30 -0.15 2.85 3.65 -2.55 7.65 -5.80 4.35z m5 -2 c0 -2.95 -4.25 -3.70 -4.65 -0.80 -0.25 1.70 0.80 2.60 2.85 2.45 1.65 -0.15 1.80 -0.30 1.80 -1.65z"/>
  <path d="M13.75 136.55 c-0.15 -0.25 -0.10 -0.60 0.10 -0.70 0.80 -0.50 6.75 -1.90 7 -1.65 0.55 0.50 -0.50 1.30 -2.25 1.75 -3.90 0.95 -4.55 1.05 -4.85 0.60z"/>
  <path d="M13 132.45 c0 -0.45 0.80 -1.55 1.75 -2.40 0.95 -0.85 1.75 -1.65 1.75 -1.80 0 -0.20 -1.05 -0.15 -2.30 0.05 -1.85 0.25 -2.30 0.20 -2.10 -0.35 0.25 -0.75 6.70 -1.85 7.25 -1.25 0.20 0.20 -0.65 1.30 -1.85 2.55 l-2.20 2.20 2.75 -0.30 c3.80 -0.40 2.65 0.60 -1.65 1.50 -3.15 0.65 -3.40 0.60 -3.40 -0.20z"/>
  <path d="M207.30 131.80 c-1.35 -0.35 -2.55 -0.85 -2.65 -1.15 -0.20 -0.50 0.40 -0.80 4.10 -2.20 1.40 -0.50 1.40 -0.60 0.50 -0.95 -0.55 -0.25 -1.60 -0.45 -2.35 -0.45 -0.90 -0.05 -1.40 -0.30 -1.40 -0.80 0 -0.90 0.30 -0.90 4.20 -0.05 1.65 0.35 3.10 0.90 3.20 1.20 0.10 0.35 -0.70 0.95 -1.75 1.40 -4.15 1.65 -4.10 1.55 -1.70 2 1.25 0.25 2.30 0.75 2.45 1.10 0.25 0.75 -1.20 0.70 -4.60 -0.10z"/>
  <path d="M12.10 123.85 c-0.95 -1.10 -1.15 -3.05 -0.50 -4 0.50 -0.65 1.60 -1 3.90 -1.20 3.85 -0.35 3.70 0.55 -0.25 1.20 -2.25 0.40 -2.50 0.55 -2.65 1.80 l-0.15 1.40 3.10 -0.10 c3.35 -0.15 4.65 0.70 1.90 1.25 -2.50 0.50 -4.80 0.35 -5.35 -0.35z"/>
  <path d="M211 123.80 c0 -0.40 0.35 -0.85 0.80 -1 0.95 -0.35 0.75 -2.55 -0.25 -2.55 -0.35 0 -1.05 0.80 -1.50 1.75 -0.85 1.85 -2.15 2.45 -3.30 1.50 -0.95 -0.80 -0.95 -3 -0.05 -4.30 0.95 -1.30 1.60 -0.50 0.90 1.05 -0.80 1.70 -0.75 2.25 0.10 2.25 0.35 0 0.95 -0.65 1.30 -1.50 0.90 -2.20 1.80 -2.75 3.25 -2.10 1 0.45 1.25 0.95 1.25 2.30 0 1.65 -1.05 3.30 -2.05 3.30 -0.25 0 -0.45 -0.30 -0.45 -0.70z"/>
  <path d="M203 85.85 c0 -0.55 0.75 -1 2.15 -1.35 1.15 -0.30 2.70 -0.75 3.50 -1 1.15 -0.40 1.35 -0.30 1.35 0.45 0 0.65 -0.65 1.05 -2.35 1.45 -1.35 0.30 -2.90 0.70 -3.50 0.90 -0.85 0.25 -1.15 0.10 -1.15 -0.45z"/>
  <path d="M14.50 84.70 c0 -0.15 0.35 -1.50 0.80 -3 0.80 -2.80 1.90 -3.70 1.60 -1.35 -0.15 1.20 0.05 1.35 2.80 2.15 1.65 0.45 3.10 1.10 3.20 1.40 0.25 0.80 -1.35 0.75 -3.90 -0.15 -2.70 -0.95 -2.85 -0.95 -3.15 0.25 -0.25 0.90 -1.35 1.45 -1.35 0.70z"/>
  <path d="M202 82.45 c0 -0.30 0.25 -0.95 0.50 -1.45 0.70 -1.25 -0.30 -3.40 -1.65 -3.60 -0.55 -0.10 -1.10 -0.45 -1.20 -0.75 -0.20 -0.50 0.75 -0.55 3.95 -0.30 2.30 0.15 4.35 0.45 4.60 0.70 0.25 0.20 -0.85 1.60 -2.50 3.15 -2.95 2.80 -3.70 3.25 -3.70 2.25z m3.40 -3.55 c0.90 -0.90 0.70 -1.40 -0.55 -1.40 -1.45 0 -1.85 0.35 -1.50 1.30 0.30 0.85 1.25 0.90 2.05 0.10z"/>
  <path d="M20.65 77.80 c-1.40 -0.60 -2.75 -1.25 -2.95 -1.45 -0.55 -0.55 1.30 -4.80 2.25 -5.10 1.30 -0.40 2.40 0.15 2.70 1.30 0.25 0.85 0.55 0.95 2.15 0.65 2.55 -0.45 2.10 0.85 -0.60 1.60 -2.30 0.65 -2.50 1.65 -0.55 2.60 0.75 0.35 1.35 0.85 1.35 1.15 0 0.70 -1.50 0.45 -4.35 -0.75z m0.75 -3 c0.45 -1 0.40 -1.35 -0.25 -1.85 -0.65 -0.55 -0.85 -0.50 -1.45 0.30 -0.75 1 -0.90 1.90 -0.35 2.40 0.65 0.70 1.50 0.30 2.05 -0.85z"/>
  <path d="M209.50 76.95 c0 -0.25 0.25 -0.35 0.50 -0.20 0.30 0.15 0.50 0.05 0.50 -0.25 0 -0.30 0.25 -0.40 0.50 -0.25 0.30 0.20 0.40 0.55 0.25 0.80 -0.40 0.60 -1.75 0.55 -1.75 -0.10z"/>
  <path d="M197.25 72 c-0.15 -0.25 1.10 -1.15 2.75 -2 2.75 -1.40 2.95 -1.60 2.45 -2.55 -0.30 -0.55 -0.40 -1.15 -0.25 -1.30 0.50 -0.50 1.60 0.75 2.55 2.85 1 2.15 0.60 3.35 -0.55 1.75 -0.70 -0.95 -0.75 -0.95 -3.45 0.40 -3.15 1.55 -3.10 1.50 -3.50 0.85z"/>
  <path d="M24.50 68.20 c-3.35 -1.60 -3.30 -1.60 -2.65 -2.25 0.35 -0.35 1.30 -0.15 3.15 0.80 2.40 1.20 2.70 1.25 3.45 0.55 1.05 -1.05 0.40 -2 -2.20 -3.45 -1.10 -0.60 -2 -1.10 -2.05 -1.10 -0.05 0 -0.20 -0.60 -0.40 -1.35 -0.25 -1.05 -0.15 -1.40 0.45 -1.40 0.40 0 0.75 0.30 0.75 0.70 0 0.40 1.20 1.35 2.65 2.15 3.05 1.65 3.55 3.10 1.85 5.30 -1.30 1.65 -1.55 1.65 -5 0.05z"/>
  <path d="M193 63.75 c0 -0.45 0.55 -1.90 1.30 -3.30 l1.25 -2.50 -2.25 1.30 c-1.65 0.95 -2.30 1.15 -2.60 0.70 -0.20 -0.35 -0.15 -0.70 0.10 -0.80 0.30 -0.10 1.70 -0.95 3.20 -1.95 3.50 -2.30 4.20 -1.70 2.35 2.05 -1.45 2.95 -1.30 3.30 0.65 1.75 1.25 -0.95 3 -1.35 3 -0.60 0 0.45 -5.80 4.10 -6.50 4.10 -0.25 0 -0.50 -0.35 -0.50 -0.75z"/>
  <path d="M29.05 60.20 c-1.90 -1.55 -2.10 -4.05 -0.55 -5.45 0.65 -0.55 0.90 -1.25 0.70 -1.85 -0.35 -1.10 0.45 -1.20 1.30 -0.15 0.35 0.40 0.95 0.75 1.35 0.75 1.10 0 3.65 2.80 3.65 4 0 1.35 -2.60 4 -3.90 4 -0.55 0 -1.70 -0.60 -2.55 -1.30z m4.35 -0.80 c0.95 -0.95 0.70 -2.75 -0.50 -3.60 -1.55 -1.10 -3.25 -1 -3.90 0.20 -1.25 2.30 2.55 5.25 4.40 3.40z"/>
  <path d="M188.70 56.25 c0.45 -1.80 -0.95 -3.80 -2.60 -3.65 -0.70 0.10 -1.35 -0.10 -1.45 -0.40 -0.10 -0.30 1.45 -1 3.60 -1.65 5.45 -1.55 5.85 -1.05 2.90 3.90 -1.85 3.15 -3 4 -2.45 1.80z m1.80 -3.50 c0.90 -1.05 0.45 -1.70 -0.85 -1.20 -0.75 0.25 -1.05 0.70 -0.85 1.20 0.40 0.95 0.90 0.95 1.70 0z"/>
  <path d="M185.20 56.30 c-0.40 -1.10 0.15 -1.65 0.90 -0.90 0.45 0.45 0.45 0.75 0 1.20 -0.45 0.45 -0.65 0.35 -0.90 -0.30z"/>
  <path d="M25 54.55 c0 -0.25 0.45 -0.55 1.05 -0.70 0.80 -0.20 0.90 -0.15 0.40 0.45 -0.65 0.80 -1.45 0.95 -1.45 0.25z"/>
  <path d="M35.25 52.45 c-3.75 -3.05 -3.65 -3.70 0.55 -3.30 l3.40 0.35 -1.85 -1.55 c-1.85 -1.50 -2.35 -2.45 -1.30 -2.45 0.30 0 1.70 0.95 3.20 2.10 3.45 2.70 3.25 3.55 -0.95 3.15 l-3.05 -0.30 1.20 1.05 c0.65 0.55 1.55 1.25 1.95 1.45 0.70 0.40 0.45 1.55 -0.30 1.55 -0.20 -0.05 -1.45 -0.95 -2.85 -2.05z"/>
  <path d="M193.60 49.45 c-0.35 -0.60 -0.55 -1.15 -0.40 -1.30 0.40 -0.45 1.80 0.85 1.80 1.65 0 1 -0.65 0.85 -1.40 -0.35z"/>
  <path d="M181 47.80 c0 -0.55 2.45 -5.85 3.40 -7.25 0.05 -0.15 0.35 0 0.65 0.30 0.35 0.35 0.15 1.30 -0.80 3.15 -0.70 1.40 -1.25 2.65 -1.15 2.75 0.10 0.10 1.25 -0.40 2.60 -1.05 2.30 -1.10 3.30 -1.20 3.30 -0.25 0 0.50 -5.95 3.05 -7.10 3.05 -0.50 0 -0.90 -0.30 -0.90 -0.70z"/>
  <path d="M41.85 45.95 c-1.15 -0.65 -2.50 -3.75 -2.05 -4.60 1.40 -2.45 4.70 -3.95 4.70 -2.10 0 0.45 -0.45 0.75 -1.25 0.75 -0.85 0 -1.45 0.40 -1.85 1.25 -0.50 1.10 -0.40 1.45 0.60 2.50 1.80 1.95 4.50 1.45 4.50 -0.85 0 -0.95 -0.75 -1.20 -1.25 -0.40 -0.45 0.75 -1.25 0.60 -1.25 -0.20 0 -0.40 0.50 -1.10 1.10 -1.50 1 -0.70 1.20 -0.70 2 0.05 1.30 1.15 1.10 2.75 -0.50 4.30 -1.45 1.40 -3.20 1.70 -4.75 0.80z"/>
  <path d="M173.70 41 c-1.40 -0.55 -2.70 -2.40 -2.70 -3.90 0 -1.55 2.60 -4.10 4.15 -4.10 1.70 0 3.85 1.80 3.85 3.30 0 1.60 -0.80 1.55 -1.60 -0.15 -0.40 -0.80 -1.15 -1.45 -1.80 -1.55 -2.75 -0.40 -4.30 3.60 -1.90 4.85 1.60 0.85 2.50 0.35 1.70 -0.95 -0.85 -1.35 -0.10 -1.85 1.10 -0.75 1.25 1.10 1.25 1.85 0.10 2.90 -1.05 0.95 -1.35 1 -2.90 0.35z"/>
  <path d="M52.40 38 c-0.35 -0.55 -1.05 -1 -1.55 -1 -0.55 0 -0.85 -0.25 -0.70 -0.60 0.10 -0.35 -0.15 -1.25 -0.60 -2.05 -0.75 -1.35 -0.75 -1.40 0.70 -2.60 2.10 -1.70 3.85 -1.60 5.45 0.30 1.85 2.15 1.70 4.10 -0.35 5.65 -2.05 1.55 -2.15 1.55 -2.95 0.30z m2.65 -4.45 c-1.20 -1.70 -3 -2.05 -4.05 -0.80 -0.80 1 -0.20 1.75 1.40 1.75 0.95 0 1.15 0.15 0.65 0.45 -0.50 0.35 -0.55 0.65 -0.05 1.55 l0.60 1.15 1.25 -1.30 1.30 -1.25 -1.10 -1.55z"/>
  <path d="M166.85 35.65 c-0.20 -0.15 -0.35 -1.50 -0.35 -3 0 -2.60 -0.65 -3.55 -1.25 -1.70 -0.15 0.50 -0.70 1.30 -1.25 1.80 -1.70 1.55 -1.25 -0.40 0.80 -3.50 2.50 -3.75 3.20 -3.60 3.20 0.65 l0.05 3.35 1.10 -1.85 c1.05 -1.75 2.20 -2.70 2.70 -2.20 0.30 0.30 -3.90 6.80 -4.35 6.80 -0.20 0 -0.50 -0.15 -0.65 -0.35z"/>
  <path d="M59.50 32.90 c0 -0.65 -0.30 -2.30 -0.70 -3.75 -0.60 -2.25 -0.60 -2.70 0 -3.20 0.55 -0.45 1.30 -0.15 3.45 1.35 1.55 1.05 3.05 2.20 3.35 2.55 0.80 0.95 0.05 1.45 -1.15 0.75 -1.30 -0.85 -3.45 0.50 -3.45 2.20 0 0.75 -0.30 1.20 -0.75 1.20 -0.45 0 -0.75 -0.45 -0.75 -1.10z m1.75 -4.70 c-0.90 -0.65 -1 -0.65 -1.15 0.05 -0.10 0.45 -0.05 1.15 0.15 1.60 0.25 0.75 0.35 0.75 1.15 -0.05 0.80 -0.80 0.80 -0.90 -0.15 -1.60z"/>
  <path d="M63.25 33.50 c0.15 -0.25 0.65 -0.50 1.05 -0.50 0.40 0 0.70 0.25 0.70 0.50 0 0.30 -0.45 0.50 -1.05 0.50 -0.55 0 -0.85 -0.20 -0.70 -0.50z"/>
  <path d="M156.45 29.05 c-1.65 -1.70 -1.80 -2.55 -0.60 -4.60 2.25 -3.85 7.85 -1.85 6.90 2.50 -0.35 1.70 -2.35 3.55 -3.85 3.55 -0.55 0 -1.65 -0.65 -2.45 -1.45z m4.25 -1.15 c1.20 -1.70 1 -3.35 -0.50 -4 -1.20 -0.55 -1.45 -0.45 -2.50 0.75 -0.65 0.80 -1.20 1.80 -1.20 2.30 0 2.15 2.90 2.80 4.20 0.95z"/>
  <path d="M67.60 28.40 c-0.85 -1.15 -2.60 -4.85 -2.60 -5.65 0 -1.50 0.80 -0.70 2.65 2.75 1.30 2.45 1.65 3.50 1.15 3.50 -0.35 0 -0.90 -0.30 -1.20 -0.60z"/>
  <path d="M151.20 24.80 c0.25 -1.40 0.15 -1.85 -0.65 -2.25 -1.50 -0.80 -1.85 -0.70 -2.55 0.95 -0.60 1.45 -1.05 1.80 -1.60 1.20 -0.45 -0.45 2.30 -6.85 3.05 -7.10 0.55 -0.20 0.60 0.20 0.35 1.50 -0.30 1.55 -0.15 1.80 0.95 2.30 1.70 0.80 1.55 0.85 2.20 -0.95 0.60 -1.70 1.80 -1.50 1.25 0.20 -0.75 2.50 -2.35 5.85 -2.80 5.85 -0.30 0 -0.40 -0.70 -0.20 -1.70z"/>
  <path d="M74.15 25.15 c-0.15 -0.50 -0.70 -2 -1.25 -3.30 -0.50 -1.30 -0.90 -2.60 -0.90 -2.85 0 -1 1.05 -0.45 1.50 0.75 0.50 1.35 0.65 1.40 2.40 0.90 1.05 -0.25 1.15 -0.50 0.85 -1.95 -0.55 -3 0.95 -1.95 2.20 1.60 0.85 2.40 1 3.45 0.60 3.85 -0.40 0.40 -0.70 0.10 -1.10 -1.05 -0.60 -1.70 -0.60 -1.75 -2.35 -1.30 -1.05 0.30 -1.15 0.55 -0.85 2.25 0.35 2 -0.45 2.80 -1.10 1.10z"/>
  <path d="M86 23.75 c-0.50 -0.60 -0.50 -0.75 0.15 -0.75 0.95 0 1.55 0.80 0.90 1.20 -0.25 0.15 -0.70 -0.05 -1.05 -0.45z"/>
  <path d="M140.50 22.50 c0 -0.25 0.45 -1.65 1.05 -3.10 l1 -2.60 -1.15 -0.85 c-1.75 -1.35 -0.85 -1.55 2.10 -0.55 2.95 1 4.20 2.45 1.70 1.90 -1.40 -0.30 -1.50 -0.20 -2.40 2.70 -0.55 1.70 -1.25 3 -1.65 3 -0.35 0 -0.65 -0.20 -0.65 -0.50z"/>
  <path d="M82.75 21.30 c-1.75 -1.75 -1.75 -4.95 0 -6.10 2.60 -1.70 5.35 -0.60 6 2.40 0.40 1.85 -0.50 3.75 -1.95 4.20 -0.60 0.15 -1.45 0.40 -1.90 0.50 -0.50 0.15 -1.40 -0.25 -2.15 -1z m4.15 -0.90 c1.45 -1.45 -0.10 -5.10 -2 -4.80 -1.75 0.25 -2.45 1.85 -1.65 3.80 0.75 1.70 2.45 2.20 3.65 1z"/>
  <path d="M161.55 21.70 c-0.35 -0.40 -0.50 -0.90 -0.35 -1.05 0.35 -0.35 1.80 0.80 1.80 1.40 0 0.65 -0.65 0.50 -1.45 -0.35z"/>
  <path d="M92.05 18.70 c-0.60 -0.75 -1.05 -2.05 -1.05 -2.95 0 -3.10 3.80 -4.90 5.75 -2.75 1 1.10 0.40 1.30 -1.50 0.55 -2.40 -1 -3.70 1.90 -1.95 4.35 0.95 1.35 2 1.40 2.80 0.10 0.75 -1.15 1.90 -1.35 1.90 -0.30 0 1.05 -1.95 2.30 -3.55 2.30 -0.90 0 -1.75 -0.45 -2.40 -1.30z"/>
  <path d="M127.75 19 c-1.35 -1.50 -1.20 -4.20 0.25 -5.75 2 -2.10 4.90 -1.45 5.95 1.40 1.40 3.70 -3.65 7.20 -6.20 4.35z m3.85 -0.60 c0.90 -0.75 1.45 -2.70 1.05 -3.70 -0.15 -0.40 -0.70 -0.95 -1.20 -1.25 -1.40 -0.70 -2.80 0.25 -3.20 2.15 -0.30 1.30 -0.15 1.75 0.75 2.50 1.30 1.05 1.55 1.10 2.60 0.30z"/>
  <path d="M122.65 18 c-0.35 -1.25 -3.20 -1.40 -4.15 -0.25 -1.45 1.75 -1.35 -0.20 0.15 -3.35 1.25 -2.65 1.80 -3.35 2.55 -3.25 0.55 0.05 1.15 0.65 1.30 1.35 0.20 0.70 0.70 2.45 1.15 3.90 0.70 2.35 0.70 2.60 0.05 2.60 -0.45 0 -0.90 -0.45 -1.05 -1z m-0.95 -2.40 c0.35 -0.60 -0.20 -2.60 -0.70 -2.60 -0.60 0 -1.15 1.90 -0.75 2.50 0.35 0.60 1.10 0.65 1.45 0.10z"/>
  <path d="M104.75 17.25 c-3.40 -3.35 0.75 -8.70 4.65 -5.95 1.35 0.95 1 1.95 -0.45 1.15 -1.65 -0.85 -3.70 -0.35 -3.85 1 -0.45 2.90 1.35 4.65 3.50 3.50 1.20 -0.65 1.15 -1.45 -0.05 -1.45 -1.50 0 -1.75 -0.95 -0.30 -1.30 2.65 -0.65 3.75 1.30 1.75 3.30 -1.40 1.40 -3.75 1.30 -5.25 -0.25z"/>
  <path d="M113.50 14.55 c0 -3.30 0.15 -4.05 0.75 -4.05 0.65 0 0.75 0.65 0.65 3.85 -0.10 2.50 -0.35 3.90 -0.75 4.05 -0.50 0.15 -0.65 -0.85 -0.65 -3.85z"/>
 </g>
</svg>